<?xml version="1.0" encoding="UTF-8"?>
<svg id="_Слой_1" data-name="Слой_1" xmlns="http://www.w3.org/2000/svg" version="1.1" viewBox="0 0 1920 1080">
  <!-- Generator: Adobe Illustrator 29.1.0, SVG Export Plug-In . SVG Version: 2.1.0 Build 142)  -->
  <defs>
    <style>
      .st0 {
        fill: #086c30;
      }

      .st1 {
        fill: #272214;
      }

      .st2 {
        fill: #e07500;
      }
    </style>
  </defs>
  <path class="st0" d="M819.09,438.19c-5.6,0-12.09,3.01-15.59,7.21-3.5,4.2-4.67,8.51-5.31,12.35-1.28,7.69-.39,14.81.78,21.81.49,2.96,1.09,5.86,1.71,8.62h28.96c-1.05-3.97-2.17-8.66-2.93-13.25-.55-3.27-.75-6.19-.83-8.62h136.41c-.07,2.43-.28,5.35-.83,8.62-.77,4.59-1.88,9.28-2.93,13.25h28.96c.62-2.77,1.22-5.66,1.71-8.62,1.17-7,2.06-14.13.78-21.81-.64-3.84-1.81-8.15-5.31-12.35-3.5-4.2-9.99-7.21-15.59-7.21h-150ZM655.03,463.19v28.12h78.12v-28.12h-78.12ZM1055.03,463.19v28.12h78.12v-28.12h-78.12ZM644.09,516.32c-7.81,0-17.27,4.34-24.43,11.5-7.17,7.17-11.5,16.62-11.5,24.43v325c0,7.81,4.34,17.27,11.5,24.43,7.17,7.17,16.62,11.5,24.43,11.5h35.94v-396.88h-35.94ZM708.15,516.32v396.88h371.88v-396.88h-371.88ZM1108.15,516.32v396.88h35.94c7.81,0,17.27-4.34,24.43-11.5,7.17-7.17,11.5-16.62,11.5-24.43v-325c0-7.81-4.34-17.27-11.5-24.43-7.17-7.17-16.62-11.5-24.43-11.5h-35.94Z"/>
  <path class="st2" d="M892.43,685.11c-3.32,0-6.14-.2-9.46-.4-18.67-1.01-28.64-4.85-39.9-17.38-9.46-10.31-18.67-23.04-26.85-33.35-5.11-6.47-8.44-7.68-21.48-7.68h-8.95v31.73c0,17.18,2.81,18.19,23.27,19.81v5.66h-68.28v-5.66c21.23-1.82,23.02-2.63,23.02-19.81v-80.65c0-17.18-2.81-17.79-23.02-19.61v-5.66h65.21c18.67,0,31.2,1.82,40.92,6.87,10.49,5.25,17.39,14.35,17.39,26.68,0,17.38-14.07,28.3-32.99,34.76,4.6,6.27,15.6,19.81,23.27,28.9,9.46,10.71,14.32,15.77,20.2,20.82,6.9,5.86,12.79,8.08,18.67,9.3l-1.02,5.66ZM798.06,619.42c13.3,0,21.74-1.62,28.13-5.86,9.97-5.86,14.07-13.95,14.07-24.86,0-21.63-18.16-29.51-37.85-29.51-7.42,0-11.76.81-13.55,2.02-2.3,1.42-3.07,3.44-3.07,8.69v49.52h12.28Z"/>
  <path class="st2" d="M1050.83,851.73c-3.32,0-6.14-.2-9.46-.4-18.67-1.01-28.64-4.85-39.89-17.38-9.46-10.31-18.67-23.04-26.85-33.35-5.12-6.47-8.44-7.68-21.48-7.68h-8.95v31.73c0,17.18,2.81,18.19,23.27,19.81v5.66h-68.28v-5.66c21.23-1.82,23.02-2.63,23.02-19.81v-80.65c0-17.18-2.81-17.79-23.02-19.61v-5.66h65.21c18.67,0,31.2,1.82,40.92,6.87,10.49,5.25,17.39,14.35,17.39,26.68,0,17.38-14.07,28.3-32.99,34.76,4.6,6.27,15.6,19.81,23.27,28.9,9.46,10.71,14.32,15.77,20.2,20.82,6.91,5.86,12.79,8.08,18.67,9.3l-1.02,5.66ZM956.46,786.04c13.3,0,21.74-1.62,28.13-5.86,9.97-5.86,14.07-13.95,14.07-24.86,0-21.63-18.16-29.51-37.85-29.51-7.42,0-11.76.81-13.55,2.02-2.3,1.42-3.07,3.44-3.07,8.69v49.52h12.28Z"/>
  <path class="st2" d="M947.05,719.81c-3.32,9.1-7.67,19.4-10.23,26.88h-96.41v-4.85c14.07-10.92,29.41-22.84,41.94-34.36,16.11-14.96,31.46-31.13,31.46-48.71s-11.25-26.48-29.92-26.48c-17.65,0-28.64,10.91-35.29,18.8l-5.88-4.25,14.58-16.37c7.93-7.07,20.2-12.13,35.04-12.13,24.29,0,43.48,13.14,43.48,34.97,0,17.18-7.93,29.31-32.22,48.91-11,9.09-27.11,21.42-38.1,29.71h48.85c13.81,0,17.65-1.01,26.34-13.74l6.39,1.62Z"/>
  <path class="st0" d="M420.18,685.11"/>
  <polygon class="st0" points="608.15 549.34 636.28 549.34 636.28 455.41 608.15 468.87 608.15 549.34"/>
  <polygon class="st0" points="1180.03 549.34 1151.9 549.34 1151.9 455.41 1180.03 468.87 1180.03 549.34"/>
  <polygon class="st2" points="519.44 513.22 898.54 336.82 1278.91 513.22 1278.91 425.02 899.18 247.85 519.44 424.1 519.44 513.22"/>
  <path class="st1" d="M1471.29,380.54"/>
  <polyline class="st2" points="1234.88 250.11 1234.88 271.9 1220.43 271.9 1220.43 387.24 1104.64 334.5 1104.64 272.13 1089.04 272.13 1089.04 250.11"/>
  <rect class="st0" x="680.03" y="904.01" width="36.87" height="9.18"/>
  <rect class="st0" x="1076.23" y="904.01" width="36.87" height="9.18"/>
</svg>